<svg id="visual" viewBox="0 0 960 540" width="960" height="540" xmlns="http://www.w3.org/2000/svg" xmlns:xlink="http://www.w3.org/1999/xlink" version="1.1"><rect x="0" y="0" width="960" height="540" fill="#f6f4f4"></rect><path d="M0 369L137 321L274 399L411 355L549 395L686 341L823 340L960 322L960 541L823 541L686 541L549 541L411 541L274 541L137 541L0 541Z" fill="#f5730a"></path><path d="M0 432L137 361L274 409L411 417L549 383L686 374L823 406L960 365L960 541L823 541L686 541L549 541L411 541L274 541L137 541L0 541Z" fill="#da5b09"></path><path d="M0 422L137 404L274 449L411 405L549 406L686 434L823 447L960 404L960 541L823 541L686 541L549 541L411 541L274 541L137 541L0 541Z" fill="#be4407"></path><path d="M0 445L137 477L274 470L411 476L549 485L686 465L823 437L960 480L960 541L823 541L686 541L549 541L411 541L274 541L137 541L0 541Z" fill="#a32d04"></path><path d="M0 493L137 512L274 490L411 485L549 501L686 476L823 507L960 497L960 541L823 541L686 541L549 541L411 541L274 541L137 541L0 541Z" fill="#871400"></path></svg>