<?xml version="1.0"?>
<svg version="1.1" xmlns="http://www.w3.org/2000/svg" width="170px" height="70px" style=""><path fill="#" d="M16.216,48.58l0-13.16l-2.66,0l-0.7,2.66l-2.576,0l0-6.02l16.24,0l0,6.02l-2.604,0l-0.7-2.66l-2.66,0l0,13.16l2.66,0.84l0,2.38l-9.66,0l0-2.38z M28.88628,39.06l0-2.24l7.476-0.14l0,2.38l-1.568,0.28l2.492,7.84l2.38-7.756l-1.624-0.364l0-2.24l7.532-0.14l0,2.38l-1.736,0.364l-4.116,11.48c-1.344,3.696-3.164,7.616-7.616,7.616c-0.952,0-2.716-0.224-2.716-0.224l0.392-2.996l1.82,0c2.24,0,3.276-2.38,3.752-3.472l-4.984-12.32z M48.08056,36.82l5.964-0.14l0.252,1.568s1.904-1.848,4.144-1.848c3.892,0,5.824,2.884,5.824,7.42c0,5.18-2.464,8.26-7.364,8.26c-0.812,0-1.652-0.112-2.38-0.28l0,3.556l2.66,0.644l0,2.24l-9.044,0l0-2.24l2.184-0.644l0-15.596l-2.24-0.7l0-2.24z M54.52056,41.3l0,7.14c0.448,0.196,1.12,0.42,2.184,0.42c2.408,0,3.22-1.68,3.22-4.536c0-2.828-0.756-4.564-2.8-4.564c-1.82,0-2.604,1.54-2.604,1.54z M81.97484,45.164l-9.296,0c0.168,2.24,1.456,3.556,3.388,3.556c2.324,0,4.704-1.316,4.704-1.316l1.204,2.324s-2.8,2.352-6.384,2.352c-4.816,0-7.28-2.8-7.28-7.56c0-4.9,2.772-8.12,7.476-8.12c4.172,0,6.356,2.576,6.356,6.58c0,1.064-0.168,2.1-0.168,2.184z M72.73484,42.56l5.068,0c0-1.596-0.672-2.8-2.296-2.8c-1.568,0-2.548,1.148-2.772,2.8z M86.04912,51.8l0-2.38l2.1-0.84l0-13.16l-2.1-0.84l0-2.38l6.44-0.14l2.128,0c4.592,0,7.28,1.904,7.28,5.712c0,2.632-1.26,4.34-3.164,5.292c0.308,0.364,0.728,0.896,1.176,1.82l1.876,3.836l1.904,0.7l0,2.38l-5.18,0l-2.352-5.18c-0.952-2.128-1.204-2.576-2.688-2.576l-0.98,0l0,4.536l2.016,0.84l0,2.38l-8.456,0z M92.48912,41.104l1.596,0c2.212,0,3.5-1.064,3.5-2.94c0-1.596-1.064-2.744-2.8-2.744l-2.296,0l0,5.684z M106.3354,39.06l0-2.24l6.44-0.14l0,9.66c0,1.54,0.448,2.24,1.708,2.24c1.82,0,3.164-1.512,3.164-1.512l0-7.308l-2.24-0.7l0-2.24l6.44-0.14l0,12.18l2.24,0.56l0,2.184l-5.908,0.196l-0.28-1.96s-2.24,2.24-4.9,2.24c-2.8,0-4.424-1.876-4.424-5.012l0-7.308z M130.17768,46.9l0.224,1.82s0.98,0.28,2.352,0.28c1.54,0,2.296-0.476,2.296-1.372c0-2.296-7.476-1.456-7.476-6.44c0-3.5,2.8-4.788,5.768-4.788c2.52,0,5.208,0.84,5.208,0.84l-0.112,4.2l-2.38,0l-0.42-1.68s-0.812-0.28-1.932-0.28c-1.204,0-1.932,0.504-1.932,1.428c0,2.268,7.476,1.288,7.476,6.132c0,3.22-2.604,5.04-6.44,5.04c-2.66,0-5.152-0.616-5.152-0.616l0-4.564l2.52,0z M149.17596,30.1l0,8.204c0.812-0.672,2.632-1.904,4.704-1.904c2.856,0,4.396,1.904,4.396,5.04l0,7.42l1.96,0.7l0,2.24l-7.616,0l0-2.24l1.456-0.672l0-6.776c0-1.4-0.56-2.24-1.848-2.24c-1.568,0-3.052,1.484-3.052,1.484l0,7.504l1.484,0.7l0,2.24l-7.924,0l0-2.24l2.24-0.7l0-15.736l-2.24-0.56l0-2.24z"/><path fill="#" d=""/></svg>
